Patient4_TMGait_0pt3_02_left_24_EMG.mot
version=1
nRows=36
nColumns=33
inDegrees=no
endheader
time	1LAddLong	2LGlutMax	3LGlutMed	4LIliopsoas	5LSemiMemb	6LBicFemLong	7LRecFem	8LVastMed	9LVastLat	10LGasMed	11LTibAnt	12lTibPost	13LPeroneusLong	14LSol	15LExtDigLong	16LFlexDigLong	17RAddLong	18RGlutMax	19RGlutMed	20RIliopsoas	21RSemiMemb	22RBicFemLong	23RRecFem	24RVastMed	25RVastLat	26RGasMed	27RTibAnt	28RTibPost	29RPeroneusLong	30RSol	31RExtDigLong	32RFlexDigLong
48.42	0.002136	0.002747	-0.082703	0.020294	0.036621	-0.002289	0.037384	0.014954	-0.082092	0.045013	0.011292	-0.002594	0.049133	-0.047302	0.028687	-0.014648	0.012207	-0.07309	0.14816	0.14038	0.078583	-0.052032	0.02533	0.002594	0.15137	0.006409	0.13016	-0.007629	-0.066376	0.069733	0.000458	-0.013275
48.421	-0.004578	-0.020905	-0.095062	0.01236	0.004578	0.018158	0.095367	0.014038	-0.084229	0.041504	0.048523	0.005188	-0.053558	0.02533	0.039368	-0.004578	0.020905	-0.058899	0.24124	0.090637	0.085754	-0.037537	-0.022888	-0.006409	0.22934	-0.001831	0.042725	-0.003662	-0.033417	0.10269	-0.00061	-0.009155
48.422	-0.001221	-0.013275	-0.10635	0.004425	0.019836	0.010223	0.12161	0.021667	-0.092468	0.007172	0.05722	-0.000763	-0.065613	0.026855	0.003815	-0.002747	0.002441	-0.043793	0.24139	-0.012207	0.36163	-0.02533	-0.021515	-0.008698	0.19455	-0.001221	0.055847	-0.016632	-0.015869	0.11688	0	-0.018311
48.423	-0.000763	0.025635	-0.077972	0.014343	0.03479	-0.014648	0.13016	0.023956	-0.10773	-0.036926	0.014648	-0.000763	-0.0354	0.010529	0.011292	0.001678	0.009308	-0.063629	0.090179	-0.038757	0.3479	-0.062714	-0.12253	0.001221	-0.007477	-0.005341	0.036926	-0.007782	0.015717	0.12772	0.001373	-0.009766
48.424	0.004272	0.030823	-0.061646	0.019836	0.029907	-0.006409	0.11978	0.012817	0.009155	-0.023651	0.033569	0.002899	0.01358	-0.21561	0.02182	-0.000153	0.007019	-0.066833	0.096588	-0.039825	0.27283	-0.13825	-0.034332	-0.001984	-0.242	-0.004578	0.025024	-0.004883	0.041351	0.13473	0.000305	-0.007019
48.425	0.001373	0.022125	-0.065155	0.016632	0.018158	-0.012665	0.11551	0.002289	0.13229	0.002289	0.033722	0.002136	0.061188	-0.18616	0.009155	0.002747	-0.024109	-0.066376	0.17548	-0.018768	0.22949	-0.050201	-0.1152	0.022736	-0.21133	0.001373	0.045929	-0.007782	0.013885	0.079803	0.001831	-0.00885
48.426	-0.001678	0.055695	0.021362	0.014496	-0.020142	-0.007019	0.099792	-0.007172	0.11139	-0.006104	0.003662	-0.001068	0.034027	-0.11139	0.006714	-0.002899	-0.064545	-0.021667	0.17731	0.055542	0.21927	0.041046	-0.29709	-0.11108	-0.20874	-0.009613	0.06012	-0.00824	-0.013428	0.044861	0	-0.000763
48.427	-0.000916	0.029144	-0.040588	-0.000916	-0.042419	-0.051422	0.016327	-0.010681	0.14404	-0.011902	-0.018616	-0.004272	-0.05188	-0.003815	0.023193	-0.011444	-0.08667	-0.026703	0.051117	0.081177	-0.000305	0.041199	-0.31784	-0.16937	-0.15335	-0.007935	0.042572	-0.005951	-0.003662	-0.007019	0.005035	-0.00946
48.428	-0.002899	0.004425	-0.11536	0.000458	-0.010376	-0.045166	-0.017853	-0.025787	0.25406	0.06424	0.002899	0.005798	0.022278	-0.045166	-0.007477	-0.003662	-0.081482	-0.004578	-0.067596	0.020752	0.050201	-0.010681	-0.44281	0.14725	-0.10712	-0.006866	0.04715	-0.007477	-0.04837	-0.019379	0.002441	-0.006256
48.429	0.001526	0.01358	-0.17181	0.015869	0.024872	-0.066681	0.041351	-0.014191	0.064392	0.088501	0.010834	0.000305	-0.032349	-0.12787	-0.013123	-0.000458	-0.035706	-0.031891	-0.298	-0.052338	0.14023	-0.043182	-0.28885	0.12299	-0.095978	-0.008545	0.048676	-0.013123	-0.012512	0.023346	0.002136	-0.008545
48.43	0.005188	0.043335	-0.12329	0.006256	0.047302	-0.084381	0.058441	-0.011444	0.062714	0.043945	0.008087	0.011139	-0.04776	-0.13123	0.005646	-0.007629	-0.012207	-0.016327	-0.13321	-0.014038	0.11505	-0.073547	-0.029449	0.046539	0.026855	-0.000458	0.048676	-0.002289	0.097351	0.054016	0.000916	-0.002136
48.431	0.014191	0.068512	0.058594	0.001221	0.058136	-0.052795	0.074921	-0.016327	0.072479	-0.012512	0.018311	0.002594	-0.063324	-0.012512	0.001831	0.006409	0.006714	-0.007629	0.020142	0.040894	0.1149	-0.075378	0.086365	-0.001984	0.028229	0.001068	0.058289	-0.003815	0.14999	0.023193	0.002136	-0.005341
48.432	0.011292	0.072784	-0.067902	-0.007324	0.02655	0.00061	0.11246	-0.011444	0.039063	-0.018768	0.024414	-0.000305	-0.07309	0.063171	0.012054	-0.011444	0.014648	-0.043793	0.21606	0.051575	0.16129	-0.078735	0.11978	-0.047913	0.021515	-0.002289	0.070801	0.001221	-0.17151	-0.015259	0.000153	-0.012207
48.433	0.011597	0.039978	0.004578	-0.005646	0.001984	0.028534	0.10986	-0.007477	0.002289	-0.061188	0.020447	0.005951	-0.031586	0.08316	0.011292	-0.00473	0.031738	-0.063629	0.11917	0.063019	0.20584	-0.039673	0.068817	-0.037384	0.069122	-0.001373	0.011444	-0.005798	-0.3833	-0.021515	0.002899	-0.012054
48.434	0.004272	0.085907	-0.070343	0.01709	-0.005188	0.036774	0.090485	-0.012817	0.005035	-0.094757	0.02121	0.007782	-0.059357	0.073242	-0.000153	0.004425	0.076752	-0.082703	-0.15274	0.13016	0.21545	0.01236	-0.072479	-0.057983	0.0177	-0.000305	0.004425	0.000153	-0.13245	-0.003052	0.001068	-0.013733
48.435	0.000458	0.081635	-0.055847	0.00946	0.018768	0.075684	0.11963	-0.002289	0.008698	-0.055695	0.023804	0.003052	-0.049438	0.050659	0.007172	0.000305	0.098572	-0.034943	0.000458	0.10315	0.11765	0.076752	-0.13321	-0.037537	-0.090637	-0.006714	0.012054	-0.000153	0.021973	0.079346	0.000916	-0.006714
48.436	-0.007019	0.10376	-0.041809	0.018158	0.020142	0.13748	0.10315	0.005493	0.00824	-0.046082	0.026855	0.000305	-0.085449	0.07309	0.00473	0.000153	0.10544	-0.022125	0.13046	0.058746	0.032806	0.075989	-0.11475	0.021057	-0.24353	-0.001373	-0.005493	0.000458	0.065613	0.045624	-0.00351	-0.012665
48.437	-0.003357	0.088806	-0.061646	0.01297	0.011292	0.1152	0.10574	0.004272	0.00946	-0.04776	0.031433	0.000153	-0.22278	0.11017	-0.003967	0.006866	0.10971	-0.014343	0.20523	-0.018463	-0.031128	-0.001373	-0.04364	0.08667	-0.40375	0.001526	0.015869	-0.00061	0.07019	-0.048981	0.002899	-0.013733
48.438	0.00351	0.041656	-0.000916	0.025024	0.001831	0.016632	0.10254	0.002136	0.025787	-0.056	0.029297	-0.001221	-0.025635	0.12024	-0.001526	-0.002441	0.072632	-0.052185	0.25024	-0.032959	-0.23025	0.016632	0.027771	0.012512	-0.401	-0.006714	0.030212	-0.005341	0.058899	-0.049744	0.006866	-0.000458
48.439	0.002136	0.051727	0.001831	0.017395	-0.009003	0.000763	0.11993	0.007477	0.018158	-0.05722	0.007477	0.00473	0.061798	0.13565	0.012817	0.001526	-0.016937	-0.060577	-0.1091	-0.02533	-0.37949	0.059967	-0.068359	0.062256	-0.24735	-0.001831	0.042572	-0.004883	-0.018616	-0.043793	0.003052	-0.010834
48.44	0.005646	0.045013	-0.047455	0.016937	0.007324	-0.010071	0.10498	-0.000458	0.032196	-0.062256	0.010529	0.006561	0.052948	0.12482	-0.001678	-0.003662	-0.040741	-0.040588	0.13168	0.007477	0.018768	0.004883	-0.056763	0.068054	-0.11581	-0.002441	0.032349	-0.005341	-0.022278	-0.055695	0.000916	-0.004272
48.441	0	0.047455	-0.14618	0.009155	-0.007019	-0.081635	0.083008	-0.012512	0.040894	-0.097046	0.002594	-0.001068	0.10269	0.077057	-0.007782	0.004883	-0.078888	-0.046234	0.14191	0.010071	0.42908	-0.014343	0.040283	0.06485	-0.051575	0.000763	0.013428	-0.00473	0.036469	-0.045624	0.00061	-0.001831
48.442	0.006714	0.066376	-0.15457	0.002899	0.001221	-0.079041	0.11551	0.00473	0.005035	-0.051422	0.016937	-0.008392	-0.041351	0.056915	-0.007324	0.016174	-0.073547	-0.070648	-0.01297	0.006104	0.4361	-0.044556	0.076141	0.077209	0.017853	-0.003357	0.012512	0.001221	0.026855	-0.063324	0.003815	-0.006561
48.443	0.010223	0.042267	-0.15625	0.008545	0.006714	-0.065155	0.090485	-0.006561	0.005951	-0.036316	0.022278	0.002747	0.021362	0.025024	-0.026703	0.04837	-0.010681	-0.043793	0.19699	-0.011902	0.14404	0.072937	0.11871	-0.020294	0.10117	0.001526	0.023499	-0.000458	0.012512	-0.069427	0.005646	-0.001068
48.444	0.005493	0.053711	-0.13962	0.014954	0.010529	0.022736	0.10529	0.002594	0.007172	-0.04715	0.021667	0.002441	-0.029449	0.005951	-0.02182	0.007477	0.023499	-0.011292	0.35263	-0.01236	-0.009766	0.041199	0.077209	0.014191	0.14267	-0.006256	0.038452	-0.002289	-0.018158	-0.076752	-0.001068	0.000458
48.445	-0.001526	0.047455	-0.1503	0.009613	0.030823	0.048828	0.10605	0.00061	0.003662	-0.029755	0.006256	0.009308	0.039368	0.034332	-0.004883	-0.059204	0.001373	-0.06424	-0.044403	-0.11276	0.009155	0.029449	0.14114	0.059967	0.097656	0.000305	0.030212	-0.007629	-0.007629	-0.003357	0.000458	0.000458
48.446	-0.003967	0.039215	-0.11505	0.015717	-0.018921	0.039368	0.072174	0.001526	-0.007935	0.063782	0.017853	0.000153	-0.001678	0.033875	-0.014954	-0.054474	-0.02533	-0.057373	-0.30579	-0.26215	-0.067139	0.16571	0.17975	0.081024	0.055542	0.003052	0.017853	-0.000153	-0.05661	0.049744	0.00473	0.001678
48.447	-0.012665	0.028229	-0.12787	0.00824	-0.063934	0.043945	0.031433	0.008087	-0.007629	0.13168	0.024261	0.005951	-0.093536	-0.080566	-0.025024	0.09552	-0.073395	-0.045319	-0.14664	-0.43716	0.54199	0.17364	0.022278	0.082092	0.001526	-0.000458	0.011292	-0.006104	-0.11673	0.049896	0.001221	0.005798
48.448	-0.016937	0.004578	-0.18234	0.01236	-0.078583	-0.042267	0.040741	0.007324	0.00824	0.11078	0.02655	0.003357	-0.15091	-0.15518	-0.029602	-0.13702	-0.062714	-0.05249	0.26123	-0.33508	0.63919	0.16052	-0.071716	0.091858	0.068207	-0.007629	0.018311	-0.001984	-0.10925	0.004578	0.001678	0.000153
48.449	-0.011902	0.044403	-0.18127	0.007172	-0.10651	-0.078278	0.042114	0.002899	0.006256	0.10742	0.017548	0.006409	-0.1152	-0.11536	-0.015106	0.092163	-0.068054	-0.015411	0.54336	-0.036316	0.29694	0.11963	-0.17456	0.1648	0.092316	-0.005188	0.015411	-0.010376	-0.055237	-0.032349	0.007019	-0.011902
48.45	-0.002747	0.080719	-0.15427	-0.005493	0.013275	-0.092316	0.00473	-0.00061	0.006104	0.094147	-0.002594	0.020752	-0.14526	0.011749	0.002136	0.36423	-0.071411	-0.037384	0.4686	0.29556	0.21301	0.071564	-0.2861	0.3006	0.10498	-0.007019	0.016174	-0.001831	-0.018158	-0.058594	0.002441	-0.014343
48.451	0.01236	0.015106	-0.11719	0.005951	0.022278	-0.09491	0.01297	0.005188	0.005035	-0.037689	-0.023193	0.011902	-0.057373	0.010223	0.019379	-0.044861	-0.043182	-0.077515	0.050812	0.4483	0.14267	0.017548	-0.2153	0.24094	-0.085297	-0.016479	0.025177	-0.003815	0.036926	-0.046844	0.006409	-0.011749
48.452	0.019684	-0.048981	-0.15839	0.008698	0.031738	-0.082397	0.036163	0.002899	0.00061	-0.000305	-0.010529	0.011292	-0.060883	0.001831	0.019073	-0.17487	-0.016022	-0.10391	-0.34317	0.24826	0.12039	-0.016174	0.003052	0.029144	-0.16144	-0.021362	0.021515	-0.005798	0.10529	-0.038452	0.000763	-0.012512
48.453	0.009155	0.018158	-0.16968	-0.001831	0.088348	-0.041199	0.019531	-0.001678	-0.027161	0.17685	-0.007629	-0.001068	-0.024872	0.089264	-0.010834	-0.077362	0.01236	-0.032501	-0.18204	0.02121	0.089264	-0.053711	0.04303	-0.055847	-0.09491	-0.015106	0.019073	-0.009003	-0.002289	-0.02243	0.000916	-0.015564
48.454	0.00885	0.045929	-0.18509	0.00885	0.088196	0.063019	0.015106	0.00061	-0.01236	0.21866	0.016632	-0.000153	-0.004883	0.15213	-0.023499	-0.029755	0.044861	0.040131	0.042877	-0.014954	0.11032	-0.025787	-0.027008	0.014038	-0.03479	0.003662	0.024719	-0.001526	-0.14008	-0.042114	0.002594	-0.00946
48.455	0.011139	-0.01236	-0.13412	0.010529	0.031586	0.070801	0.040741	-0.007324	0.032806	0.064697	0.005493	-0.00061	0.03006	0.11124	-0.019531	-0.00824	0.039978	-0.045929	0.027161	0.002289	0.15945	0.002747	-0.079651	0.056458	-0.007477	0.006256	0.021057	0.00885	-0.22415	-0.016174	0.001831	-0.006561
